<svg xmlns="http://www.w3.org/2000/svg" viewBox="0 0 98.66 98.14"><defs><style>.cls-1{fill:#3f4ea2;}.cls-2{fill:#4d65af;}.cls-3{fill:#efa333;}.cls-4{fill:#fff;}</style></defs><g id="Layer_2" data-name="Layer 2"><g id="Layer_1-2" data-name="Layer 1"><ellipse class="cls-1" cx="49.22" cy="50.56" rx="48.95" ry="47.58"/><path class="cls-2" d="M46.11,97.66H45.8c-.6-.22-1.24.07-1.84-.16l-.29,0c-.36-.18-.78,0-1.14-.16l-.3,0c-.3-.17-.65,0-.95-.16l-.07,0-.08,0c-.29-.2-.64,0-.93-.16l-.07,0-.07,0c-.29-.19-.65,0-.93-.17l-.06,0H39a.21.21,0,0,1-.09-.25,2.88,2.88,0,0,0,.15-1c-.32-3.25,1.06-5.92,2.84-8.45,1.32-1.88,2.71-3.72,4.07-5.56a16.88,16.88,0,0,0,2.76-5,6.11,6.11,0,0,0-3.84-8,14.76,14.76,0,0,0-9.15-.17,45.21,45.21,0,0,1-7.54,1.45c-4.36.33-8.64,0-12.66-1.93a16,16,0,0,1-7.17-7.12A39.32,39.32,0,0,1,4.53,47.43,101.16,101.16,0,0,1,4,32.26.39.39,0,0,1,4,32a.12.12,0,0,0,.05-.13c.06-.13,0-.31.19-.41v0c.07-.12,0-.29.18-.38v0c.08-.12,0-.29.19-.38v0c.08-.12.06-.28.17-.38h0c.09-.1.07-.27.18-.37H5c.09-.1.06-.27.18-.36h0c.09-.11.06-.28.19-.37h0c.09-.11.06-.28.19-.36h0c.09-.11,0-.29.2-.37v0c0-.09.1-.14.14-.21v0c.12-.08.08-.25.19-.34H6c.1-.09.07-.27.19-.35h0c.09-.11,0-.29.2-.36l0,0a.56.56,0,0,1,.16-.21h0c.11-.09.08-.26.19-.35h0c.1-.1.06-.28.2-.36l0,0c0-.09.11-.14.16-.21h0c.13-.08.08-.26.21-.34h0a3.25,3.25,0,0,1,.36-.55h0A4,4,0,0,1,8,24.82H8a2.34,2.34,0,0,1,.38-.55l0,0a.87.87,0,0,1,.17-.21h0c.11-.09.07-.28.22-.34l0,0a.5.5,0,0,1,.17-.21h0a1.56,1.56,0,0,0,.16-.2h0c.13-.07.08-.26.21-.33h0a1.56,1.56,0,0,1,.16-.2h0c.12-.08.07-.27.23-.33l0,0a.31.31,0,0,1,.18-.22v0a.65.65,0,0,1,.17-.2h0a1,1,0,0,0,.16-.19h0c.13-.07.08-.27.24-.32l0,0a.36.36,0,0,1,.19-.21l0,0a.61.61,0,0,1,.18-.21h0c.05-.07.12-.12.17-.19h0c.15-.16.2-.4.4-.51l0,0a.27.27,0,0,1,.19-.21l0,0a.34.34,0,0,1,.19-.2h0a.61.61,0,0,1,.19-.2h0a1.07,1.07,0,0,1,.18-.19h0l.17-.19h0c.16-.15.2-.39.41-.5l0,0a.28.28,0,0,1,.2-.21l0,0a.29.29,0,0,1,.19-.2l0,0a.33.33,0,0,1,.2-.2l0,0a.33.33,0,0,1,.2-.2l0,0a.33.33,0,0,1,.2-.2l0,0a.37.37,0,0,1,.19-.2v0a.37.37,0,0,1,.19-.2v0a.34.34,0,0,1,.19-.2v0a.3.3,0,0,1,.19-.19h0a.34.34,0,0,1,.2-.19v0a.29.29,0,0,1,.2-.2l0,0a.25.25,0,0,1,.2-.19l0,0c.38-.27.58-.77,1.11-.85.25.08.36.3.48.51,2.58,4.67,5.48,9.15,8.17,13.76.85,1.44,1.76,2.84,2.58,4.29.5.86.56.86,1.06,0q3.67-6.13,7.38-12.26c1-1.58,2-3.14,2.85-4.76A11.06,11.06,0,0,0,38,6c-.24-.39-.67-.72-.53-1.27a19.89,19.89,0,0,1,3-.64,54.78,54.78,0,0,1,11.29-.73A2.84,2.84,0,0,1,53,3.48c-.45.43-1,.26-1.53.26a.94.94,0,0,0-1.07.82,52,52,0,0,0-1.31,10,9.06,9.06,0,0,0,3.48,7.68,6.92,6.92,0,0,1,2.22,2.66c1,2.38.84,4.78-1.42,6.47a45.85,45.85,0,0,1-6.23,3.86c-3.28,1.71-6.56,3.41-9.66,5.43a22.61,22.61,0,0,0-4.23,3.57,6,6,0,0,0-1.63,3.33,3.66,3.66,0,0,0,1.76,3.74,10.8,10.8,0,0,0,5.18,1.53c3.24.28,6.48.41,9.73.37a28.83,28.83,0,0,1,4.45.37,4.13,4.13,0,0,1,.61.13c3,.76,3.61,1.87,3.49,5s-1,6.17-1.39,9.28a13.65,13.65,0,0,0,.05,4.28A4.61,4.61,0,0,0,58.8,76a8,8,0,0,0,6.61-.91c.69-.42,1.3-1,2-1.31.54-.06.7.38.9.72,1.58,2.63,3.18,5.25,4.74,7.89.6,1,.61,1,1.2,0,3.4-5.66,6.79-11.34,10.22-17a7.48,7.48,0,0,0,.65-1.37c.11-.27.15-.59.52-.66a57.71,57.71,0,0,1,8,3.09,13,13,0,0,0,1.72.72c0,.13.07.26-.07.36h0c-.07.12,0,.28-.17.38h0c-.1.1-.07.26-.17.37h0c-.18.13,0,.41-.22.53l0,0c-.08.12,0,.28-.18.38h0c-.09.11-.07.27-.18.37h0c-.09.1-.07.27-.17.37h0c-.11.1-.08.27-.18.37h0c-.18.13,0,.41-.22.52v0c-.06.13,0,.3-.19.37l0,0c0,.1-.09.15-.14.22a.07.07,0,0,0,0,.1.46.46,0,0,1-.15.26h0c-.12.08-.08.25-.19.35h0c-.1.1-.07.27-.19.36h0c-.1.11-.06.28-.2.36h0c-.08.11,0,.29-.2.36l0,0a.71.71,0,0,1-.15.22h0c-.11.08-.07.26-.2.34h0c-.09.11-.06.29-.2.37v0c-.08.12,0,.3-.2.37l0,0a.4.4,0,0,1-.16.22h0c-.1.09-.07.28-.21.35l0,0c0,.09-.11.14-.16.21h0c-.12.08-.08.27-.21.34v0a.8.8,0,0,1-.15.21h0c-.12.08-.07.26-.21.34l0,0a1.66,1.66,0,0,1-.16.21h0c-.12.08-.07.27-.21.34l0,0a.71.71,0,0,1-.17.21h0c-.11.09-.06.28-.22.34l0,0a.33.33,0,0,1-.17.21h0c0,.08-.12.13-.16.2h0c-.12.08-.08.26-.21.34l0,0a1.12,1.12,0,0,1-.17.21h0c-.12.08-.07.28-.23.33l0,0a.33.33,0,0,1-.17.21h0a.82.82,0,0,1-.17.2h0c-.15.16-.21.39-.4.52l0,0a.37.37,0,0,1-.18.21v0a.67.67,0,0,1-.17.2h0a1.46,1.46,0,0,0-.16.19h0c-.17.14-.21.38-.4.5l0,0a.36.36,0,0,1-.19.21l0,0a.52.52,0,0,1-.19.2h0a.82.82,0,0,1-.17.2h0a5.45,5.45,0,0,1-.57.7v0a.34.34,0,0,1-.19.2l0,0a.37.37,0,0,1-.19.2h0a.47.47,0,0,1-.18.19h0a.58.58,0,0,1-.19.19h0a.58.58,0,0,1-.19.19h0a.77.77,0,0,1-.18.18h0a.77.77,0,0,1-.18.18h0a1.07,1.07,0,0,1-.19.18h0a1.07,1.07,0,0,1-.19.18h0a1.62,1.62,0,0,1-.19.18h0a.86.86,0,0,1-.19.19h0a.86.86,0,0,1-.19.19h0a.65.65,0,0,1-.19.18h0a.46.46,0,0,1-.2.19h0a.46.46,0,0,1-.2.19l0,0a.37.37,0,0,1-.2.19v0a.29.29,0,0,1-.2.2l0,0-.56.55,0,0c-.11.2-.36.24-.5.41h0a1.54,1.54,0,0,0-.19.17h0a.82.82,0,0,1-.2.17h0a.39.39,0,0,1-.2.18h0a.28.28,0,0,1-.2.18l0,0c0,.16-.25.11-.32.23h0c-.08,0-.13.11-.2.16h0a.65.65,0,0,1-.2.17h0a.28.28,0,0,1-.21.18l0,0c0,.16-.25.11-.32.23h0c-.07,0-.12.12-.2.17h0a.4.4,0,0,1-.21.17l0,0c-.06.15-.25.1-.33.23h0c-.08,0-.13.12-.2.16h0a.45.45,0,0,1-.21.18l0,0c-.06.15-.26.1-.34.22h0a.78.78,0,0,1-.21.16h0c-.14.17-.37.23-.52.39h0c-.07,0-.12.12-.2.15h0a2.46,2.46,0,0,1-.54.37h0a2.17,2.17,0,0,1-.55.36h0c-.08.13-.26.08-.34.2h0a.8.8,0,0,1-.21.15l0,0c-.08.15-.26.11-.35.21h0a.4.4,0,0,1-.22.16l0,0c-.06.16-.25.12-.36.21h0c-.08.13-.26.1-.36.2h0a2.61,2.61,0,0,1-.56.34h0c-.08.14-.26.11-.37.2h0c-.09.13-.26.09-.36.2h0c-.09.11-.26.08-.35.19h0c-.1.1-.27.06-.35.18h0c-.07,0-.12.13-.22.14l0,0c-.07.16-.25.13-.37.2h0c-.08.15-.26.11-.36.21h0c-.09.12-.26.09-.36.19h0c-.09.11-.26.08-.36.18h0c-.09.12-.26.09-.37.18h0c-.09.12-.26.09-.37.18h0c-.09.13-.25.1-.37.18h0c-.1.15-.28.13-.42.18h-.06l0,0c-.1.1-.26.06-.36.16h0c-.11.11-.27.09-.38.17h0c-.11.14-.28.13-.43.18h-.06l0,0c-.1.1-.26.07-.37.16h0c-.12.12-.29.12-.43.17H68l0,0c-.11.1-.27.08-.38.16h0c-.13.19-.39,0-.54.19h0c-.14.18-.39,0-.54.19h0a1.72,1.72,0,0,1-.43.16H66l0,0a2.19,2.19,0,0,1-.43.15h-.06l0,0a1.38,1.38,0,0,1-.43.15H65l0,0c-.15.16-.39,0-.54.17h0c-.16.17-.4,0-.56.17h0c-.13.19-.39,0-.54.19h0c-.16.17-.41.06-.6.17h-.06l-.05,0c-.17.14-.41,0-.59.15h-.07l-.06,0c-.18.14-.41,0-.6.15H61.2l-.05,0c-.22.19-.52,0-.73.17h0c-.23.2-.54,0-.79.17l0,0-.05,0c-.27.22-.64,0-.91.18h0c-.3.22-.66,0-1,.17l-.05,0,0,0c-.35.23-.78,0-1.13.17l-.07,0-.06,0c-.41.23-.89,0-1.31.17l-.3,0c-.59.23-1.24-.06-1.83.16h-.32A46.14,46.14,0,0,1,46.11,97.66Z"/><path class="cls-1" d="M67.65,73.84l-2.06,1.4a7.23,7.23,0,0,1-3.31,1.26,7.34,7.34,0,0,1-4.68-.74A4.92,4.92,0,0,1,55.86,74a5.67,5.67,0,0,1-.8-3.24c0-.51,0-1,0-1.52a13.12,13.12,0,0,1,.3-2.65l.6-3.5c.16-.87.33-1.74.48-2.62a7.94,7.94,0,0,0,.05-1,2.77,2.77,0,0,1,.13-1.14.4.4,0,0,0,0-.18c-.2-.71-.08-1.47-.34-2.19a2.39,2.39,0,0,0-1.06-1.28,8.92,8.92,0,0,0-2.67-.93c-.88-.2-1.79,0-2.65-.32a2.79,2.79,0,0,0-.71,0h-5a3.17,3.17,0,0,1-1.06-.11,2.38,2.38,0,0,0-.71-.06H40.38a3.21,3.21,0,0,1-1.23-.13,1.87,1.87,0,0,0-.53,0,12.75,12.75,0,0,1-4.88-1.24,4.37,4.37,0,0,1-2.42-3.12,2.63,2.63,0,0,1,0-1.15,6.7,6.7,0,0,1,2-3.73c.22-.2.43-.42.64-.63a21.76,21.76,0,0,1,4.6-3.5c1.19-.72,2.4-1.43,3.6-2.14a1.71,1.71,0,0,1,.23-.13l4.6-2.39a47.26,47.26,0,0,0,6.29-3.88,5.5,5.5,0,0,0,1.51-1.74,2.18,2.18,0,0,0,.35-1.36,10,10,0,0,0-.14-2,5.64,5.64,0,0,0-1.37-2.46C53,23,52.4,22.46,51.79,21.94a7.1,7.1,0,0,1-2-2.68,8.93,8.93,0,0,1-.65-1.84A13.7,13.7,0,0,1,48.79,15c0-.48,0-1,0-1.43a2.89,2.89,0,0,1,.1-1A1.39,1.39,0,0,0,49,12c-.09-.84.22-1.65.2-2.48a5.4,5.4,0,0,1,.18-1c.27-1.52.57-3,.88-4.54.1-.46.2-.53.67-.54.68,0,1.37,0,2.05,0a17,17,0,0,1,3.11.26,42.16,42.16,0,0,1,5.34,1A52.25,52.25,0,0,1,72.17,8.67a.48.48,0,0,0,.17.05.46.46,0,0,1,.26.15.06.06,0,0,0,.09,0,.46.46,0,0,1,.27.15h0c.08.12.25.08.35.18h0c.09.11.26.07.35.18h0c.1.1.27.07.36.19h0c.1.09.28.05.36.19h0c.12.08.3.05.37.21l0,0c.09,0,.15.09.22.15h0c.09.11.27.07.35.2h0c.11.09.29.06.36.21l0,0c.09,0,.14.1.22.15h0c.09.12.27.08.35.21h0c.11.09.3.05.36.21l0,0c.1,0,.15.09.22.16h0c.09.11.27.06.34.21l0,0a.69.69,0,0,1,.22.16h0c.09.12.27.07.34.21h0a.8.8,0,0,1,.21.15h0c.08.12.27.07.34.22l0,0a.39.39,0,0,1,.2.18h0a1.56,1.56,0,0,1,.2.16h0c.08.12.27.08.33.23l0,0a.47.47,0,0,1,.21.16h0c.09.11.29.06.34.23l0,0a.23.23,0,0,1,.15.21c0,.57-.46.72-.83.94-2.8,1.64-5.58,3.32-8.38,5-1.54.91-3,1.91-4.55,2.84a3.3,3.3,0,0,0-1.8,2.78,47.28,47.28,0,0,0,0,6.94,4.07,4.07,0,0,0,1.63,2.87,44,44,0,0,0,9.72,6.15q10.93,5,22,9.84c1.35.59,1.35.59,1.23,2.13,0,.24,0,.48,0,.71a5.62,5.62,0,0,1-.09,1.64.11.11,0,0,0,0,.14c-.22.47.08,1-.17,1.47,0,0,0,.08,0,.12-.17.3,0,.66-.16,1a.11.11,0,0,0,0,.14c-.19.29,0,.65-.17.93,0,0,0,.08,0,.12-.15.24,0,.54-.15.77a.11.11,0,0,0,0,.14c-.17.23,0,.54-.17.76,0,0,0,.06,0,.1-.1.2,0,.44-.16.62a.07.07,0,0,0,0,.11c-.11.19,0,.43-.16.6a.07.07,0,0,0,0,.11c-.11.18,0,.43-.17.6h0c-.14.16,0,.4-.15.55a.09.09,0,0,0,0,.13c-.13.17,0,.43-.18.59v0c-.14.16,0,.41-.18.55h0c-.15.16,0,.41-.18.55h0c-.15.15,0,.41-.19.55v0c-.15.16,0,.42-.2.55v0c-.07.12-.06.28-.16.39h0c-.17.14,0,.39-.19.53h0c-.06.07-.07.17-.18.18s-.37.2-.59.07-.42-.21-.63-.32c-1.55-.77-3.13-1.44-4.74-2.06-1-.38-2-.72-3-1.07a1.41,1.41,0,0,1-.69-.37c-.27-.34-.1-.69,0-1A11.56,11.56,0,0,0,78.7,49.13,12.19,12.19,0,0,0,64.89,51.7a10.94,10.94,0,0,0-2.24,13.15c1.4,2.73,3.12,5.28,4.68,7.92C67.52,73.1,67.82,73.4,67.65,73.84Z"/><path class="cls-1" d="M4.06,32.15c.21.18.16.43.16.66,0,1.08,0,2.15,0,3.22,0,1.85,0,3.7,0,5.55a2.51,2.51,0,0,0,.12,1.05.61.61,0,0,1,0,.27c-.09,1,.19,2,.19,3a9.32,9.32,0,0,0,.24,1.76,6.88,6.88,0,0,0,.28,1.75,33.32,33.32,0,0,0,.84,4.09,31.86,31.86,0,0,0,.95,3.16,23.15,23.15,0,0,0,3.46,6.6,17.17,17.17,0,0,0,2.92,2.86,14.39,14.39,0,0,0,3.08,1.79A18.35,18.35,0,0,0,19.74,69c.8.19,1.63.27,2.45.4a46,46,0,0,0,5.25.15,2.17,2.17,0,0,0,.8-.09,1.16,1.16,0,0,1,.52-.08,7,7,0,0,0,1.94-.24,23.57,23.57,0,0,0,3.22-.66c.48-.14,1-.25,1.46-.39a19.89,19.89,0,0,1,3-.54,20.51,20.51,0,0,1,2.21-.15,11,11,0,0,1,5.18,1.12,6,6,0,0,1,3.42,4.1,6.66,6.66,0,0,1,0,3.17,12.47,12.47,0,0,1-1.69,3.91c-1.06,1.61-2.25,3.13-3.4,4.69-.37.5-.75,1-1.1,1.5a37.87,37.87,0,0,0-2.42,3.74,12.77,12.77,0,0,0-1.22,3.43,3.35,3.35,0,0,0,0,.71c0,.78,0,1.55,0,2.33a.44.44,0,0,1-.39.5.66.66,0,0,1-.68,0h0c-.22-.18-.52,0-.73-.17l-.05,0-.06,0c-.19-.11-.43,0-.61-.15l0,0h-.07c-.18-.11-.42,0-.59-.16L36,96,36,96c-.19-.11-.44,0-.6-.18h0c-.16-.15-.41,0-.55-.19h0c-.17-.14-.41,0-.56-.18h0c-.16-.15-.4,0-.55-.17h0c-.14-.17-.39,0-.54-.18l0,0h-.06a1.3,1.3,0,0,1-.43-.15l0,0h0a1.15,1.15,0,0,1-.44-.15h0c-.14-.17-.4,0-.54-.19h0c-.14-.15-.41,0-.54-.2h0c-.12-.07-.28-.06-.38-.16h0c-.14-.17-.41,0-.53-.2h0c-.12-.08-.27-.06-.38-.16h0c-.13-.18-.41,0-.53-.22l0,0c-.12-.08-.28-.06-.38-.17h0c-.11-.09-.27-.07-.37-.17h0c-.12-.18-.41,0-.51-.22h0c-.12-.06-.29,0-.38-.18h0c-.12-.08-.29,0-.38-.18h0c-.12-.09-.28-.06-.38-.19h0c-.11-.09-.27-.06-.37-.18h0c-.1-.09-.27-.06-.36-.18h0c-.11-.09-.29,0-.36-.21l0,0c-.1,0-.16-.09-.23-.14h0c-.08-.12-.25-.08-.35-.18h0c-.09-.12-.26-.08-.35-.18h0c-.09-.11-.27-.07-.36-.19h0c-.1-.09-.28-.06-.36-.2h0c-.12-.08-.3,0-.37-.2l0,0c-.09,0-.15-.1-.22-.15h0c-.09-.12-.26-.08-.35-.2h0c-.1-.1-.28-.06-.36-.21l0,0c-.09,0-.14-.11-.21-.15h0c-.08-.12-.26-.08-.34-.2h0c-.11-.1-.29-.06-.36-.22l0,0a.45.45,0,0,1-.21-.15h0c-.1-.11-.28-.07-.35-.21h0c-.09,0-.14-.1-.21-.15h0c-.08-.12-.27-.08-.34-.22l0,0c-.09,0-.14-.11-.21-.16h0c-.08-.12-.27-.08-.33-.22v0c-.09,0-.14-.11-.21-.16h0c-.16-.16-.39-.21-.52-.4l0,0a.5.5,0,0,1-.21-.17h0c-.09-.1-.29,0-.33-.23l0,0a.29.29,0,0,1-.22-.18l0,0a.87.87,0,0,1-.21-.17h0c-.08-.11-.28-.06-.33-.23l0,0a.27.27,0,0,1-.21-.17h0a.82.82,0,0,1-.2-.17h0c-.16-.14-.39-.2-.52-.39h0a.33.33,0,0,1-.21-.17h0a1.06,1.06,0,0,1-.2-.17h0c-.16-.16-.4-.2-.51-.41l0,0a.28.28,0,0,1-.21-.18l0,0a.61.61,0,0,1-.21-.18h0a1,1,0,0,1-.19-.17h0L16,85.33h0a13.17,13.17,0,0,1-1-.95l0,0a.25.25,0,0,1-.2-.19l0,0a.3.3,0,0,1-.21-.2l0,0a.34.34,0,0,1-.2-.19l0,0a.41.41,0,0,1-.2-.19h0a.44.44,0,0,1-.19-.19h0a.5.5,0,0,1-.19-.19v0a.69.69,0,0,1-.19-.19h0a.58.58,0,0,1-.19-.19h0a.58.58,0,0,1-.19-.19h0a.58.58,0,0,1-.19-.19h0a.41.41,0,0,1-.19-.2v0a.46.46,0,0,1-.19-.2v0a.41.41,0,0,1-.19-.2l0,0a.33.33,0,0,1-.19-.21l0,0a.27.27,0,0,1-.2-.2l0,0a.25.25,0,0,1-.19-.21l0,0c-.16,0-.11-.25-.24-.32h0a1.54,1.54,0,0,0-.17-.19h0a.86.86,0,0,1-.18-.2h0a.44.44,0,0,1-.18-.2v0a.31.31,0,0,1-.18-.21l0,0a.23.23,0,0,1-.19-.21l0,0c-.22-.1-.26-.35-.41-.51h0a1,1,0,0,1-.17-.19h0a.41.41,0,0,1-.18-.21l0,0c-.19-.13-.24-.36-.4-.51h0c0-.07-.11-.12-.16-.2h0a.37.37,0,0,1-.18-.21l0,0c-.19-.13-.25-.35-.39-.52h0a.47.47,0,0,1-.16-.21l0,0c-.15-.07-.11-.25-.22-.35h0a.78.78,0,0,1-.16-.21h0a2,2,0,0,1-.38-.53h0a.33.33,0,0,1-.17-.21l0,0c-.16-.06-.12-.25-.22-.34H8A.41.41,0,0,1,7.83,76l0,0c-.16-.06-.11-.25-.22-.35h0a.48.48,0,0,1-.16-.22l0,0c-.16-.06-.11-.25-.22-.35h0a.36.36,0,0,1-.16-.22l0,0c-.17-.06-.13-.25-.22-.35h0c-.13-.08-.08-.26-.2-.35h0c0-.07-.13-.13-.14-.23l0,0c-.17-.06-.13-.24-.21-.36v0c-.14-.08-.1-.26-.2-.36h0c-.11-.09-.07-.26-.19-.35H6c-.06-.08-.13-.13-.15-.23l0,0c-.16-.07-.12-.25-.2-.36h0c-.14-.08-.11-.25-.2-.36h0c-.13-.09-.1-.26-.2-.36h0c-.12-.1-.08-.27-.19-.36h0c-.1-.1-.07-.26-.18-.36h0c-.1-.09-.07-.26-.18-.36h0c-.1-.11-.08-.27-.17-.38h0c-.12-.09-.1-.26-.18-.37h0c-.12-.09-.1-.26-.18-.37h0c-.14-.09-.11-.25-.18-.38v0c-.22-.11,0-.39-.22-.52h0c-.09-.11-.07-.27-.17-.37h0c-.12-.1-.1-.26-.17-.38v0c-.21-.12,0-.39-.21-.53h0c-.1-.1-.08-.26-.16-.38v0c-.2-.14-.05-.4-.2-.55H3c-.19-.13,0-.39-.2-.53h0a1.22,1.22,0,0,1-.15-.43.08.08,0,0,0,0-.11c-.09-.11-.07-.26-.14-.38v0c-.21-.15-.07-.41-.19-.59a.09.09,0,0,0,0-.12,1.66,1.66,0,0,1-.14-.43s0-.08,0-.11,0-.39-.17-.54h0c-.16-.17-.06-.41-.17-.6,0,0,0-.08,0-.11s0-.4-.16-.56v0c-.22-.2,0-.52-.19-.73h0c-.22-.22,0-.53-.18-.76a.09.09,0,0,0,0-.13c-.18-.21,0-.51-.17-.73H1c-.22-.28,0-.64-.17-.93a.11.11,0,0,0,0-.14c-.2-.28,0-.64-.17-.92a.12.12,0,0,0,0-.15c-.18-.3,0-.66-.16-1,0,0,0-.08,0-.11C.23,56,.52,55.49.3,55l0-.31c-.22-.66,0-1.36-.15-2a1.79,1.79,0,0,0,0-.83,7.3,7.3,0,0,1,0-2.51,2.64,2.64,0,0,0,0-1c.2-.66-.07-1.36.15-2l0-.3c.2-.42,0-.89.16-1.31l0-.29c.16-.3,0-.66.15-1a.11.11,0,0,0,0-.14c.18-.29,0-.65.16-.94a.08.08,0,0,0,0-.12c.15-.24,0-.54.16-.77a.11.11,0,0,0,0-.14c.16-.23,0-.53.16-.76a.08.08,0,0,0,0-.12c.11-.18,0-.41.15-.59s0-.08,0-.14,0-.41.15-.58a.09.09,0,0,0,0-.12c.12-.18,0-.43.16-.6l0,0,0,0c.11-.19,0-.45.18-.62v0c.14-.16,0-.4.17-.56h0c.16-.14,0-.39.17-.54a.06.06,0,0,0,0-.1,1.3,1.3,0,0,1,.15-.43.08.08,0,0,0,0-.11,1.38,1.38,0,0,1,.15-.43h0c.17-.14,0-.4.19-.53h0c.16-.14,0-.41.2-.54v0c.08-.12.06-.27.15-.38a.08.08,0,0,0,0-.12c.06-.14.05-.3.17-.42h0c.09-.1.06-.26.15-.36a.09.09,0,0,0,0-.12c.06-.14.05-.31.18-.42h0c.09-.11.06-.27.17-.37h0C3.93,32.27,4,32.16,4.06,32.15Z"/><path class="cls-2" d="M98.4,53.32l0-1.52a.64.64,0,0,0-.44-.68c-1.26-.53-2.51-1.1-3.76-1.65l-4.8-2.13c-1.64-.72-3.29-1.4-4.9-2.15-.54-.25-1.07-.51-1.61-.75l-4-1.81c-.84-.38-1.7-.71-2.53-1.11-1.55-.75-3.09-1.53-4.63-2.3l-.16-.08c-1.17-.78-2.33-1.54-3.49-2.33-.56-.38-1.09-.81-1.64-1.22a10.45,10.45,0,0,1-2.19-2.06A1.53,1.53,0,0,1,64,33a7.78,7.78,0,0,1-.31-1.92,7.79,7.79,0,0,0-.14-2,2,2,0,0,1,0-1.07,5.57,5.57,0,0,0,.13-1.86,13.58,13.58,0,0,1,.22-2.3,1.88,1.88,0,0,1,.9-1.38c.83-.57,1.69-1.11,2.54-1.65.63-.4,1.25-.8,1.89-1.19l3.06-1.83,3-1.77,2.68-1.6c.41-.24.83-.47,1.24-.72a.51.51,0,0,0,.24-.45.1.1,0,0,1,.18,0h0a1.12,1.12,0,0,1,.2.17h0c.09.12.28.07.34.23l0,0a.31.31,0,0,1,.21.18l0,0a.87.87,0,0,1,.21.17h0c.17.15.4.21.53.4l0,0a.45.45,0,0,1,.21.18h0a.82.82,0,0,1,.2.17h0c.16.15.4.2.52.4l0,0a.31.31,0,0,1,.21.18h0a.44.44,0,0,1,.2.18h0a1.63,1.63,0,0,1,.2.17h0a.69.69,0,0,0,.18.16h0c.37.3.7.63,1,1l0,0a.29.29,0,0,1,.2.19l0,0A.34.34,0,0,1,84,17h0a.35.35,0,0,1,.19.19v0a.52.52,0,0,1,.2.19h0a.61.61,0,0,1,.2.19h0a.61.61,0,0,1,.2.19h0a.55.55,0,0,1,.18.19h0a.58.58,0,0,1,.19.19v0a.69.69,0,0,1,.19.19h0a.69.69,0,0,1,.19.19h0a.61.61,0,0,1,.19.2v0a.52.52,0,0,1,.19.2l0,0a.41.41,0,0,1,.19.2v0a.41.41,0,0,1,.19.2h0a.29.29,0,0,1,.19.2v0a4.84,4.84,0,0,1,.57.7h0a1.54,1.54,0,0,1,.17.19h0a.68.68,0,0,1,.18.2v0a.37.37,0,0,1,.18.21v0a.28.28,0,0,1,.18.2h0c.2.11.25.35.41.51h0c0,.06.12.12.17.19h0a.61.61,0,0,1,.18.21l0,0a.33.33,0,0,1,.19.21l0,0c.16.05.11.25.24.32h0c0,.07.12.13.17.19h0a.42.42,0,0,1,.17.2h0c.18.14.24.36.38.52h0a.4.4,0,0,1,.16.22l0,0c.16.06.11.25.23.33h0a.78.78,0,0,1,.16.2h0a3.22,3.22,0,0,1,.38.53h0a.44.44,0,0,1,.17.21l0,0c.15.06.11.25.22.34h0a.65.65,0,0,1,.16.21v0c.14.07.09.26.21.34h0a.56.56,0,0,1,.16.21l0,0c.15.07.11.25.22.34h0a.69.69,0,0,1,.16.22l0,0c.15.07.11.25.21.35h0c.12.09.08.27.2.35h0c0,.07.13.12.15.22l0,0c.16.06.12.25.21.36v0c.13.08.09.26.2.36h0c.06.07.14.13.15.22l0,0c.17.07.13.25.21.37v0c.14.08.1.26.2.37v0c.12.09.09.26.19.37h0c.11.09.08.26.19.35h0c.1.1.06.27.18.35h0c.1.1.06.26.18.35h0c.09.1.06.26.18.35h0c.09.1.07.26.17.36h0c.1.1.08.26.17.36h0c.11.09.09.26.18.37h0c.13.09.1.26.18.37h0c.14.09.11.26.18.38v0c.22.11,0,.39.22.53h0c.1.1.08.26.16.37h0c.13.11.11.28.17.42a.07.07,0,0,0,0,.11c.09.11.06.27.15.37h0c.18.14,0,.4.19.54h0c.11.12.1.28.16.42a.09.09,0,0,0,0,.12c.1.1.07.26.15.37h0c.19.13,0,.39.19.54h0c.18.14,0,.4.19.55h0c.18.14,0,.39.18.55h0c.19.16.07.41.19.59a.08.08,0,0,0,0,.12c.15.15,0,.39.16.55h0c.23.2,0,.51.2.72h0c.15.18.06.42.16.61a.07.07,0,0,0,0,.11c.2.2,0,.51.18.72h0c.2.22,0,.53.17.76a.11.11,0,0,0,0,.13c.18.23,0,.54.16.78a.07.07,0,0,0,0,.11c.22.29,0,.65.17.94a.12.12,0,0,0,0,.14c.19.3,0,.66.16,1l0,.29c.2.41,0,.88.15,1.3a.09.09,0,0,0,0,.13c.25.66-.05,1.36.17,2a.79.79,0,0,0,0,.48,19.47,19.47,0,0,1,0,4.11,1.51,1.51,0,0,0,0,.67A.12.12,0,0,1,98.4,53.32Z"/><path class="cls-3" d="M37.48,4.71c.17.28.34.56.52.83a11.35,11.35,0,0,1,2,7.18,11.09,11.09,0,0,1-1.58,5.16l-6,10L28.06,35.1c-.15.26-.31.5-.46.73-.23,0-.29-.15-.36-.27q-2.68-4.49-5.38-9c-1.24-2.07-2.5-4.12-3.74-6.19-.84-1.41-1.71-2.79-2.42-4.27-.19-.13-.07-.36-.18-.52a.1.1,0,0,0,0-.12c-.15-.15,0-.39-.17-.55h0c-.2-.21,0-.52-.17-.75a.14.14,0,0,0,0-.14c-.2-.36,0-.77-.16-1.12l0-.67a.25.25,0,0,1,0-.36,2.32,2.32,0,0,0,0-.83c.19-.36-.05-.78.17-1.14a.09.09,0,0,0,0-.12c.16-.23,0-.55.18-.77h0c.14-.15,0-.39.16-.55a.07.07,0,0,0,0-.11A1.72,1.72,0,0,1,15.68,8h0c.17-.14,0-.41.21-.54v0c.08-.12,0-.28.18-.38v0c.09-.11.06-.28.19-.37h0c.09-.11.06-.29.19-.37h0c.09-.11.05-.29.21-.36l0,0a.41.41,0,0,1,.16-.21h0c.1-.09.06-.28.21-.35l0,0a.5.5,0,0,1,.17-.21h0c.1-.1.06-.29.21-.35l0,0a.37.37,0,0,1,.18-.21h0a1.06,1.06,0,0,1,.17-.2h0a8.41,8.41,0,0,1,1.42-1.44h0A1.45,1.45,0,0,0,19.26,3h0a.68.68,0,0,1,.2-.18h0a.39.39,0,0,1,.2-.18l0,0c.07-.15.26-.1.34-.22h0a1.06,1.06,0,0,1,.21-.16h0c.08-.13.26-.09.34-.21h0c.07,0,.12-.13.21-.16l0,0c.08-.14.26-.11.36-.2h0c.09-.12.27-.08.36-.19h0A3.22,3.22,0,0,1,22,1.2h0c.11-.14.28-.13.43-.18a.08.08,0,0,0,.1,0c.11-.09.27-.07.38-.16h0c.14-.18.4,0,.55-.19h0c.15-.17.39,0,.55-.17h0c.21-.21.52,0,.74-.18a.16.16,0,0,0,.15,0c.24-.16.53,0,.77-.15a.11.11,0,0,0,.12,0,14.38,14.38,0,0,1,3.59,0,.09.09,0,0,0,.13,0c.29.19.65,0,.94.18h0c.21.19.52,0,.72.19h0c.16.16.4,0,.55.17a.08.08,0,0,0,.11,0,1.19,1.19,0,0,1,.43.16h0c.14.16.41,0,.54.2h0c.12.08.29.05.38.19a5.87,5.87,0,0,0,.58.39,12.71,12.71,0,0,1,3.72,3A.49.49,0,0,0,37.48,4.71Z"/><path class="cls-3" d="M67.65,73.84a26.49,26.49,0,0,0-1.44-2.47c-1.14-1.92-2.31-3.82-3.44-5.75a11.09,11.09,0,0,1-1.57-6.15A11.39,11.39,0,0,1,63.45,53,12.45,12.45,0,0,1,72,48a11.88,11.88,0,0,1,5.39.41,12.76,12.76,0,0,1,5.46,3.28,11.65,11.65,0,0,1,3,11.14l-.15.7c-.21.48-.41,1-.66,1.45-.42.78-.87,1.56-1.33,2.32q-3,4.94-6,9.86l-3.44,5.74c-.14.23-.28.46-.43.68a.16.16,0,0,1-.29,0c-.39-.6-.76-1.21-1.13-1.82l-4.19-7Z"/><path class="cls-4" d="M27.57,8a4.83,4.83,0,0,1,4.65,3.72,4.35,4.35,0,0,1-.7,3.4,4.87,4.87,0,0,1-6.71,1.3,4.5,4.5,0,0,1-2.1-3.66,4.24,4.24,0,0,1,1.21-3.17A4.76,4.76,0,0,1,27.57,8Z"/><path class="cls-4" d="M74.11,64.05a4.68,4.68,0,0,1-4.59-3.33,4.34,4.34,0,0,1,.85-4.1,4.85,4.85,0,0,1,6-1.23,4.51,4.51,0,0,1,.93,7.54A4.62,4.62,0,0,1,74.11,64.05Z"/></g></g></svg>