<svg xmlns="http://www.w3.org/2000/svg" viewBox="0 0 80.19 79.92"><defs><style>.cls-1{fill:none;}.cls-2{fill:#323232;}</style></defs><g id="Layer_2" data-name="Layer 2"><g id="Layer_1-2" data-name="Layer 1"><rect class="cls-1" x="0.03" width="80.16" height="79.92"/><path class="cls-2" d="M44.66,57.06c.11-.48.24-1,.34-1.42a9.58,9.58,0,0,0-.45-6.16c-.53-1.17-1-2.33-1.62-3.48s-1.27-2.25-1.81-3.41a12.74,12.74,0,0,1-1.3-6.31A7.1,7.1,0,0,1,43,30.63l.13-.08c.35.34.7.68,1.06,1a17.62,17.62,0,0,0,3.33,2.57,8.72,8.72,0,0,0,1.29.57A7.26,7.26,0,0,1,51,35.8,2.78,2.78,0,0,1,52,37.07a3.84,3.84,0,0,0,3.68,2.28,3.51,3.51,0,0,0,2.74-2.51,3.26,3.26,0,0,0-.06-2.63,24.81,24.81,0,0,0-1.67-3.09,41.72,41.72,0,0,1-4.2-8,30.11,30.11,0,0,1-2.08-7.49,16.14,16.14,0,0,1-.1-3.61c0-.12,0-.23,0-.42-1.76,1-3.44,2.11-5.07,3.25a47.92,47.92,0,0,1,6-5v.55a25.27,25.27,0,0,0,1.51,9.19,45.5,45.5,0,0,0,3.79,8.64c.48.79,1,1.55,1.56,2.28A8.65,8.65,0,0,1,60,35.39,4.74,4.74,0,0,1,57.83,40a5.7,5.7,0,0,1-5.65.33,2.35,2.35,0,0,1-1.12-1.1c-.24-.51-.5-1-.72-1.54a.88.88,0,0,0-.53-.52,17.78,17.78,0,0,1-5.61-3.42c-.33-.3-.69-.57-1.09-.9a4.26,4.26,0,0,0-1.3,1.72,5.9,5.9,0,0,0-.2,3.91A30.07,30.07,0,0,0,43.28,43a33.56,33.56,0,0,1,2.15,6.16,14.53,14.53,0,0,1,.23,5.65,5.63,5.63,0,0,1-.74,2l-.21.3Z"/><path class="cls-2" d="M39.79,57.36l-1-.27A31.07,31.07,0,0,1,28.29,52a19.29,19.29,0,0,1-7.18-10.42,18.14,18.14,0,0,1,.66-11.32,23.61,23.61,0,0,1,8.35-11A19.06,19.06,0,0,1,38.59,16c.91-.14,1.83-.24,2.74-.35l.73,0c-1.1.28-2.17.52-3.22.83a23.16,23.16,0,0,0-11.21,6.92A22,22,0,0,0,22.5,33.93a17.66,17.66,0,0,0-.27,5.38,16.52,16.52,0,0,0,2.14,6.32,22.43,22.43,0,0,0,7.53,7.75,42.41,42.41,0,0,0,7.72,3.84l.19.08Z"/><path class="cls-2" d="M71,66.16V63.63h1.24V70.2H71a6.06,6.06,0,0,1,0-.85A2.78,2.78,0,0,0,70.18,67c-.37-.41-.66-.88-1.05-1.41v4.66H68V63.6c.37,0,.75,0,1.14,0,.08,0,.17.13.23.22.46.7.9,1.39,1.35,2.09l.19.27Z"/><path class="cls-2" d="M38.76,70.3V63.65a24.86,24.86,0,0,1,3.13.15,1.51,1.51,0,0,1,.85,2.51,2.9,2.9,0,0,1-.44.38,6.25,6.25,0,0,1,.81.57,1.8,1.8,0,0,1-.73,2.79,6.12,6.12,0,0,1-1.41.24C40.24,70.33,39.51,70.3,38.76,70.3Zm1.16-2c0,.28,0,.56,0,.84a.35.35,0,0,0,.15.25,8.19,8.19,0,0,0,1.49,0c.54-.1.74-.48.71-1.12a.87.87,0,0,0-.8-.9,10.4,10.4,0,0,0-1.37,0c-.06,0-.17.13-.18.21C39.91,67.78,39.92,68.05,39.92,68.33Zm0-1.86c.43,0,.84,0,1.24,0a.91.91,0,0,0,.77-1,.79.79,0,0,0-.7-.93c-.42-.07-.86-.05-1.31-.08Z"/><path class="cls-2" d="M52.05,70.23c-.45,0-.85,0-1.25,0a.37.37,0,0,1-.24-.2c-.14-.29-.26-.59-.38-.89s-.13-.38-.21-.56c-.44-1-.59-1-1.68-.87v2.51H47.05V63.65c1.06,0,2.12,0,3.16.13a1.55,1.55,0,0,1,1.4,1.54,1.92,1.92,0,0,1-.93,2l0,0Zm-3.76-3.41H49l.56,0a1.08,1.08,0,0,0,.86-1.21.89.89,0,0,0-.89-1,6.68,6.68,0,0,0-1,0,.3.3,0,0,0-.19.22C48.28,65.45,48.29,66.1,48.29,66.82Z"/><path class="cls-2" d="M8.2,63.62H9.42v2.65h1.92V63.62h1.22v6.59H11.35V67.55H9.43v2.66H8.2Z"/><path class="cls-2" d="M60.81,70.22H59.59c-.13-.39-.27-.8-.39-1.22a.35.35,0,0,0-.4-.29q-1,0-1.95,0a.36.36,0,0,0-.43.33c-.09.33-.22.65-.32,1-.05.15-.11.23-.29.22s-.62,0-1,0c0-.14.08-.25.12-.37q1.1-3,2.18-5.92c.08-.22.17-.33.42-.3s.65-.08.86.06.23.49.32.76c.67,1.82,1.33,3.63,2,5.45A2.81,2.81,0,0,1,60.81,70.22Zm-2-2.36-1-3.06-1,3.06Z"/><path class="cls-2" d="M20.13,63.73v.89H17.49v1.81h2v.9h-2v2h2.92v.91H16.29V63.73Z"/><path class="cls-2" d="M77.41,69.13h2.66v1.08l-.17,0H75.7l2.36-5.52H75.71V63.62h4.22Z"/><path class="cls-2" d="M5,63.8l-.16,1a10.55,10.55,0,0,0-1.32-.25,1.85,1.85,0,0,0-2.09,1.71,4.24,4.24,0,0,0,0,1.33A2,2,0,0,0,4,69.21a7.72,7.72,0,0,0,1-.29c0,.3,0,.6,0,.9a.29.29,0,0,1-.13.18A3.49,3.49,0,0,1,.52,68.92c-.79-1.25-.81-3.79.84-4.87a4,4,0,0,1,3.05-.44c.17,0,.35.09.52.13Z"/><path class="cls-2" d="M31.21,69c.43.11.84.24,1.26.31a3.41,3.41,0,0,0,.9,0,.63.63,0,0,0,.57-.48.73.73,0,0,0-.22-.8,7.53,7.53,0,0,0-.82-.51c-.36-.22-.74-.39-1.08-.64a1.8,1.8,0,0,1-.84-1.5,1.51,1.51,0,0,1,1.08-1.53,3.64,3.64,0,0,1,2.58,0c.15.06.22.13.17.3s-.12.46-.18.72A2.64,2.64,0,0,0,33,64.57c-.36.05-.68.15-.8.54a.83.83,0,0,0,.44.93c.35.22.74.39,1.1.6a9.42,9.42,0,0,1,.81.53,1.62,1.62,0,0,1,.61,1.71A1.55,1.55,0,0,1,34,70.15,4.55,4.55,0,0,1,31,69.94Z"/><path class="cls-2" d="M27,64.91a2.57,2.57,0,0,0-1.7-.33.8.8,0,0,0-.76.51A.81.81,0,0,0,25,66c.34.22.71.39,1.07.59a9.38,9.38,0,0,1,.85.54A1.65,1.65,0,0,1,27.53,69a1.61,1.61,0,0,1-1.26,1.23A4.35,4.35,0,0,1,23.65,70a.32.32,0,0,1-.18-.26c0-.25.1-.49.15-.73.43.11.84.24,1.25.31a3.47,3.47,0,0,0,.91,0,.63.63,0,0,0,.57-.47.75.75,0,0,0-.24-.83c-.24-.18-.51-.32-.77-.48s-.78-.41-1.13-.66A1.78,1.78,0,0,1,23.42,65a1.45,1.45,0,0,1,1-1.15,3.67,3.67,0,0,1,2.61,0,.22.22,0,0,1,.17.3C27.16,64.42,27.11,64.64,27,64.91Z"/><path class="cls-2" d="M64.45,70.21H63.24V63.6c.35,0,.69,0,1,0,.07,0,.17.14.18.22,0,.25,0,.5,0,.75v5.63Z"/></g></g></svg>